HIERARCHY
ROOT Hips
{
	OFFSET 0.000000 0.000000 0.000000 
	CHANNELS 6 Xposition Yposition Zposition Zrotation Xrotation Yrotation
	JOINT Spine
	{
		OFFSET 0.025696 8.374035 -0.002219 
		CHANNELS 3 Zrotation Xrotation Yrotation
		JOINT Spine1
		{
			OFFSET 0.037545 19.287872 0.041476 
			CHANNELS 3 Zrotation Xrotation Yrotation
			JOINT Neck
			{
				OFFSET 0.048995 22.804892 0.050017 
				CHANNELS 3 Zrotation Xrotation Yrotation
				JOINT Head
				{
					OFFSET 0.069231 15.543568 1.975471 
					CHANNELS 3 Zrotation Xrotation Yrotation
					End Site
					{
						OFFSET -0.000000 19.661171 0.000000 
					}
				}
			}
			JOINT LeftShoulder
			{
				OFFSET 3.943664 16.348362 -0.348172 
				CHANNELS 3 Zrotation Xrotation Yrotation
				JOINT LeftArm
				{
					OFFSET 19.774092 0.307226 -0.006297 
					CHANNELS 3 Zrotation Xrotation Yrotation
					JOINT LeftForeArm
					{
						OFFSET 25.289482 0.142896 0.034830 
						CHANNELS 3 Zrotation Xrotation Yrotation
						JOINT LeftHand
						{
							OFFSET 27.587254 0.080132 0.065604 
							CHANNELS 3 Zrotation Xrotation Yrotation
							End Site
							{
								OFFSET 14.745877 0.000000 0.000000 
							}
						}
					}
				}
			}
			JOINT RightShoulder
			{
				OFFSET -3.881776 16.348362 -0.348175 
				CHANNELS 3 Zrotation Xrotation Yrotation
				JOINT RightArm
				{
					OFFSET -19.707745 0.313866 -0.010452 
					CHANNELS 3 Zrotation Xrotation Yrotation
					JOINT RightForeArm
					{
						OFFSET -25.269497 0.092134 0.040954 
						CHANNELS 3 Zrotation Xrotation Yrotation
						JOINT RightHand
						{
							OFFSET -26.344341 0.058329 0.087678 
							CHANNELS 3 Zrotation Xrotation Yrotation
							End Site
							{
								OFFSET -14.745877 0.000000 0.000000 
							}
						}
					}
				}
			}
		}
	}
	JOINT LeftUpLeg
	{
		OFFSET 9.856290 0.312936 -0.002223 
		CHANNELS 3 Zrotation Xrotation Yrotation
		JOINT LeftLeg
		{
			OFFSET 0.070626 -46.169353 -0.016510 
			CHANNELS 3 Zrotation Xrotation Yrotation
			JOINT LeftFoot
			{
				OFFSET 0.052792 -29.987816 0.064588 
				CHANNELS 3 Zrotation Xrotation Yrotation
				JOINT LeftToeBase
				{
					OFFSET 0.079364 -6.086428 14.731017 
					CHANNELS 3 Zrotation Xrotation Yrotation
					End Site
					{
						OFFSET -0.000000 0.000000 3.932234 
					}
				}
			}
		}
	}
	JOINT RightUpLeg
	{
		OFFSET -9.804880 0.312936 -0.002216 
		CHANNELS 3 Zrotation Xrotation Yrotation
		JOINT RightLeg
		{
			OFFSET -0.000486 -46.161472 0.020096 
			CHANNELS 3 Zrotation Xrotation Yrotation
			JOINT RightFoot
			{
				OFFSET 0.050920 -29.981106 -0.016311 
				CHANNELS 3 Zrotation Xrotation Yrotation
				JOINT RightToeBase
				{
					OFFSET -0.007629 -6.076071 14.737690 
					CHANNELS 3 Zrotation Xrotation Yrotation
					End Site
					{
						OFFSET -0.000000 0.000000 3.932234 
					}
				}
			}
		}
	}
}
MOTION
Frames: 10
Frame Time: 0.010000
17.394657 76.542900 15.240171 6.281874 2.223758 2.304000 3.635131 -4.046047 0.728995 -1.439410 -0.109769 0.199844 2.042735 9.225499 5.296668 -4.529757 12.017879 6.924277 1.575253 12.264174 2.959449 -72.404198 20.229849 -21.661942 -7.928251 -0.190587 -4.902552 8.657082 -0.118358 6.393690 -9.095716 10.549516 -10.769928 58.260483 49.289154 28.236454 5.536261 -12.273456 5.943569 -8.016451 -12.505776 -1.523318 21.042891 -11.702824 4.118319 1.879542 -1.993675 3.274945 -12.161268 22.415342 4.524764 0.000000 0.000000 0.000000 -24.281260 0.847747 10.820957 12.542167 30.081942 -10.582832 -6.534571 -21.337267 -12.927192 0.000000 0.000000 0.000000 
18.357353 76.364769 15.709484 6.111765 2.265070 2.083960 3.685086 -4.119074 0.869585 -1.453300 -0.125078 0.245069 2.087786 9.057807 5.175420 -4.537528 11.530103 6.790307 1.619806 12.350739 3.037033 -72.466957 20.166656 -21.666586 -7.990286 -0.144258 -4.957606 8.752593 -0.073333 6.402229 -9.078645 10.677729 -10.820141 58.395611 49.051395 27.908989 5.450374 -12.186231 5.955754 -7.646712 -12.421291 -1.474905 21.238409 -11.692801 3.496183 1.813400 -1.258790 3.468082 -12.195558 21.249573 4.155568 0.000000 0.000000 0.000000 -24.746578 1.078442 10.959383 12.432813 29.715410 -10.687063 -6.173314 -20.808765 -12.711135 0.000000 0.000000 0.000000 
19.347782 76.193687 16.187540 5.917121 2.320130 1.854050 3.748694 -4.206377 1.016528 -1.459121 -0.131435 0.292320 2.143197 8.865857 5.045613 -4.544006 11.040125 6.648556 1.669573 12.437406 3.113142 -72.534683 20.118898 -21.675863 -8.065477 -0.099893 -5.015302 8.843899 -0.031664 6.403399 -9.059932 10.812429 -10.876908 58.518478 48.799973 27.577642 5.502717 -12.229847 6.006950 -7.777959 -12.470835 -1.445844 21.428049 -11.700842 2.885649 1.767331 -0.475967 3.711485 -12.366406 20.059330 3.735765 0.000000 0.000000 0.000000 -25.208155 1.298762 11.105138 12.329899 29.282703 -10.824331 -5.821956 -20.164991 -12.453118 0.000000 0.000000 0.000000 
20.365654 76.030968 16.674849 5.700701 2.384493 1.616722 3.804139 -4.328341 1.166583 -1.469787 -0.141670 0.340994 2.124507 8.754263 4.922379 -4.282111 10.482688 6.439569 1.800196 12.565467 3.119750 -72.691917 20.031567 -21.666059 -8.129615 -0.047843 -5.066742 8.937474 0.018025 6.394687 -8.978458 10.992727 -10.871983 58.594818 48.498760 27.206408 5.537513 -12.274967 6.102214 -7.816184 -12.521575 -1.453898 21.591616 -11.702132 2.308311 1.724494 0.372878 3.981521 -12.592923 18.710518 3.280552 0.000000 0.000000 0.000000 -25.668303 1.514212 11.252064 12.234108 28.781260 -11.000848 -5.486171 -19.400589 -12.142683 0.000000 0.000000 0.000000 
21.411030 75.877808 17.168802 5.468960 2.461247 1.369347 3.884924 -4.430098 1.319340 -1.508153 -0.149557 0.391644 2.201578 8.515752 4.778743 -4.135475 10.034543 6.256536 1.945747 12.656434 3.177907 -72.834366 20.014542 -21.670029 -8.219295 0.007271 -5.117638 9.019801 0.068580 6.382680 -8.869112 11.127385 -10.931902 58.615940 48.231842 26.843800 5.566392 -12.271805 6.237938 -7.853556 -12.531524 -1.374867 21.699854 -11.758857 1.795628 1.744089 1.433531 4.264262 -12.894426 17.129667 2.741851 0.000000 0.000000 0.000000 -26.133907 1.715056 11.391767 12.147682 28.217934 -11.221697 -5.172726 -18.513121 -11.768491 0.000000 0.000000 0.000000 
22.483265 75.735382 17.665279 5.225126 2.552581 1.107074 3.967554 -4.532893 1.470687 -1.476499 -0.144492 0.439876 2.281304 8.256212 4.634547 -4.149086 9.567904 6.106548 1.997081 12.713509 3.261622 -72.904701 20.047104 -21.673899 -8.350099 0.055475 -5.174232 9.081367 0.108684 6.371693 -8.851849 11.247397 -11.017282 58.697868 47.944973 26.487152 5.594422 -12.289327 6.357737 -7.923373 -12.562348 -1.277581 21.786564 -11.808963 1.402902 1.729150 2.544472 4.482276 -13.212719 15.401277 2.173990 0.000000 0.000000 0.000000 -26.606535 1.889951 11.519765 12.070908 27.600065 -11.489893 -4.889022 -17.501104 -11.323058 0.000000 0.000000 0.000000 
23.580544 75.606110 18.160021 4.977208 2.666017 0.828773 4.036959 -4.638164 1.623582 -1.417862 -0.153523 0.488437 2.365066 7.998960 4.489058 -4.167334 9.105145 5.956683 2.044417 12.765823 3.339780 -72.974579 20.108656 -21.678045 -8.502524 0.105924 -5.220706 9.139115 0.150169 6.357814 -8.833933 11.369832 -11.108471 58.756332 47.640255 26.131800 5.560242 -12.257121 6.480762 -7.824135 -12.544090 -1.138788 21.870773 -11.676710 1.184674 1.612094 3.223278 4.597960 -13.490759 13.813271 1.636558 0.000000 0.000000 0.000000 -27.090914 2.024650 11.629869 12.005811 26.935497 -11.806981 -4.645768 -16.364613 -10.805143 0.000000 0.000000 0.000000 
24.696934 75.494148 18.652416 4.724295 2.800303 0.545487 4.032934 -4.768832 1.769320 -1.327894 -0.167620 0.534748 2.463889 7.760849 4.336131 -3.989666 8.673906 5.763759 2.216572 12.842281 3.368936 -73.189445 20.152357 -21.680252 -8.633330 0.182931 -5.231394 9.212207 0.222454 6.337139 -8.682848 11.492979 -11.162697 58.637753 47.353081 25.774204 5.558106 -12.314958 6.670893 -7.717273 -12.618034 -1.040759 21.887804 -11.666933 1.164533 1.579802 4.224213 4.579779 -13.814905 11.971714 1.002249 0.000000 0.000000 0.000000 -27.575893 2.124070 11.716028 11.950937 26.224781 -12.177961 -4.456215 -15.097965 -10.217371 0.000000 0.000000 0.000000 
25.825394 75.405037 19.143614 4.464894 2.948892 0.275162 4.066957 -4.890702 1.892711 -1.207780 -0.178198 0.573813 2.562824 7.511528 4.188591 -4.035773 8.237642 5.620965 2.258142 12.869012 3.428278 -73.245804 20.269381 -21.683071 -8.837842 0.246365 -5.247450 9.265277 0.275706 6.314123 -8.663233 11.601276 -11.264161 58.687340 46.992729 25.406166 5.559307 -12.300730 6.812969 -7.941775 -12.624678 -0.813243 21.874193 -11.661326 1.369759 1.544815 5.230284 4.365165 -14.116336 10.075870 0.347113 0.000000 0.000000 0.000000 -28.047794 2.204323 11.769269 11.903071 25.465736 -12.608954 -4.334483 -13.693910 -9.560449 0.000000 0.000000 0.000000 
26.962833 75.343552 19.628736 4.203910 3.116867 0.025422 4.078454 -5.019283 1.985740 -1.062276 -0.194456 0.602886 2.673461 7.270659 4.043910 -4.094782 7.825200 5.486031 2.303951 12.886028 3.478818 -73.296417 20.411802 -21.689680 -9.063830 0.320952 -5.244245 9.305188 0.339526 6.292233 -8.635282 11.700651 -11.367582 58.741180 46.592216 25.031898 5.372749 -12.150642 6.924313 -7.492872 -12.488987 -0.514276 21.827063 -11.682672 1.807377 1.509497 6.256454 3.929015 -14.371424 8.147865 -0.309473 0.000000 0.000000 0.000000 -28.505007 2.257635 11.778840 11.864425 24.666979 -13.105997 -4.292991 -12.151615 -8.829793 0.000000 0.000000 0.000000 
